{"asset":{"version":"2.0","generator":"babylon.js glTF exporter for 3ds max 2018 v1.3.33"},"scene":0,"scenes":[{"nodes":[0,1,2,4,6,7],"extensions":{}}],"nodes":[{"mesh":0,"translation":[-10.7932739,0.0,-1.3663063],"rotation":[0.0,0.0,0.0,1.0],"scale":[1.0,1.0,1.0],"name":"sg"},{"skin":0,"mesh":1,"translation":[-10.7932739,0.0,-1.3663063],"rotation":[0.0,0.0,0.0,1.0],"scale":[1.0,1.0,1.0],"name":"x"},{"children":[3,5],"translation":[-11.4862022,243.039932,-4.905118E-09],"rotation":[0.5013452,0.498837352,0.5102239,0.489372849],"scale":[1.00000012,1.00000012,1.0],"name":"Bones"},{"translation":[-192.214508,4.490721,-2.54503584],"rotation":[-6.977701E-07,-0.006173097,-3.886949E-06,0.9999809],"scale":[0.999999762,1.00000012,1.00000072],"name":"Bonex"},{"skin":1,"mesh":2,"translation":[-10.7932739,0.0,-1.3663063],"rotation":[0.0,0.0,0.0,1.0],"scale":[1.0,1.0,1.0],"name":"z"},{"translation":[-95.6433258,2.23423052,-2.05009031],"rotation":[-4.75530555E-07,-0.0122832535,-2.4495634E-07,0.999924541],"scale":[1.0,0.999999762,1.00000036],"name":"Bonez"},{"skin":2,"mesh":3,"translation":[-10.7932739,0.0,-1.3663063],"rotation":[0.0,0.0,0.0,1.0],"scale":[1.0,1.0,1.0],"name":"s"},{"translation":[0.0,0.0,0.0],"rotation":[0.0,0.0,0.0,1.0],"scale":[1.0,1.0,1.0],"name":"Default light"}],"meshes":[{"primitives":[{"attributes":{"POSITION":1,"NORMAL":2,"TEXCOORD_0":3},"indices":0,"mode":4,"material":0}],"name":"sg"},{"primitives":[{"attributes":{"POSITION":5,"NORMAL":6,"TEXCOORD_0":7,"JOINTS_0":8,"WEIGHTS_0":9},"indices":4,"mode":4,"material":1}],"name":"x"},{"primitives":[{"attributes":{"POSITION":11,"NORMAL":12,"TEXCOORD_0":13,"JOINTS_0":14,"WEIGHTS_0":15},"indices":10,"mode":4,"material":1}],"name":"z"},{"primitives":[{"attributes":{"POSITION":17,"NORMAL":18,"TEXCOORD_0":19,"JOINTS_0":20,"WEIGHTS_0":21},"indices":16,"mode":4,"material":1}],"name":"s"}],"accessors":[{"bufferView":0,"componentType":5123,"count":44061,"type":"SCALAR","name":"accessorIndices"},{"bufferView":1,"componentType":5126,"count":44061,"max":[214.033188,410.416626,231.669586],"min":[-194.6094,0.0,-174.174332],"type":"VEC3","name":"accessorPositions"},{"bufferView":1,"byteOffset":528732,"componentType":5126,"count":44061,"type":"VEC3","name":"accessorNormals"},{"bufferView":2,"componentType":5126,"count":44061,"type":"VEC2","name":"accessorUVs"},{"bufferView":0,"byteOffset":88124,"componentType":5123,"count":2760,"type":"SCALAR","name":"accessorIndices"},{"bufferView":1,"byteOffset":1057464,"componentType":5126,"count":2760,"max":[172.057312,176.61,236.623779],"min":[-203.076035,19.4362488,-183.8169],"type":"VEC3","name":"accessorPositions"},{"bufferView":1,"byteOffset":1090584,"componentType":5126,"count":2760,"type":"VEC3","name":"accessorNormals"},{"bufferView":2,"byteOffset":352488,"componentType":5126,"count":2760,"type":"VEC2","name":"accessorUVs"},{"bufferView":3,"componentType":5123,"count":2760,"type":"VEC4","name":"accessorJoints"},{"bufferView":4,"componentType":5126,"count":2760,"type":"VEC4","name":"accessorWeights"},{"bufferView":0,"byteOffset":93644,"componentType":5123,"count":4872,"type":"SCALAR","name":"accessorIndices"},{"bufferView":1,"byteOffset":1123704,"componentType":5126,"count":4872,"max":[226.321716,278.71405,246.469849],"min":[-210.912231,146.872131,-181.73761],"type":"VEC3","name":"accessorPositions"},{"bufferView":1,"byteOffset":1182168,"componentType":5126,"count":4872,"type":"VEC3","name":"accessorNormals"},{"bufferView":2,"byteOffset":374568,"componentType":5126,"count":4872,"type":"VEC2","name":"accessorUVs"},{"bufferView":3,"byteOffset":22080,"componentType":5123,"count":4872,"type":"VEC4","name":"accessorJoints"},{"bufferView":4,"byteOffset":44160,"componentType":5126,"count":4872,"type":"VEC4","name":"accessorWeights"},{"bufferView":0,"byteOffset":103388,"componentType":5123,"count":6324,"type":"SCALAR","name":"accessorIndices"},{"bufferView":1,"byteOffset":1240632,"componentType":5126,"count":6324,"max":[157.386978,426.194336,210.9994],"min":[-190.833008,254.241211,-147.588287],"type":"VEC3","name":"accessorPositions"},{"bufferView":1,"byteOffset":1316520,"componentType":5126,"count":6324,"type":"VEC3","name":"accessorNormals"},{"bufferView":2,"byteOffset":413544,"componentType":5126,"count":6324,"type":"VEC2","name":"accessorUVs"},{"bufferView":3,"byteOffset":61056,"componentType":5123,"count":6324,"type":"VEC4","name":"accessorJoints"},{"bufferView":4,"byteOffset":122112,"componentType":5126,"count":6324,"type":"VEC4","name":"accessorWeights"},{"bufferView":5,"componentType":5126,"count":2,"type":"MAT4","name":"accessorInverseBindMatrices"},{"bufferView":5,"byteOffset":128,"componentType":5126,"count":2,"type":"MAT4","name":"accessorInverseBindMatrices"},{"bufferView":5,"byteOffset":256,"componentType":5126,"count":1,"type":"MAT4","name":"accessorInverseBindMatrices"},{"bufferView":6,"componentType":5126,"count":101,"max":[3.33333325],"min":[0.0],"type":"SCALAR","name":"accessorAnimationInput"},{"bufferView":7,"componentType":5126,"count":101,"type":"VEC3","name":"accessorAnimationPositions"},{"bufferView":8,"componentType":5126,"count":101,"type":"VEC4","name":"accessorAnimationRotations"},{"bufferView":7,"byteOffset":1212,"componentType":5126,"count":101,"type":"VEC3","name":"accessorAnimationScales"},{"bufferView":6,"byteOffset":404,"componentType":5126,"count":101,"max":[3.33333325],"min":[0.0],"type":"SCALAR","name":"accessorAnimationInput"},{"bufferView":7,"byteOffset":2424,"componentType":5126,"count":101,"type":"VEC3","name":"accessorAnimationPositions"},{"bufferView":8,"byteOffset":1616,"componentType":5126,"count":101,"type":"VEC4","name":"accessorAnimationRotations"},{"bufferView":7,"byteOffset":3636,"componentType":5126,"count":101,"type":"VEC3","name":"accessorAnimationScales"},{"bufferView":6,"byteOffset":808,"componentType":5126,"count":101,"max":[3.33333325],"min":[0.0],"type":"SCALAR","name":"accessorAnimationInput"},{"bufferView":7,"byteOffset":4848,"componentType":5126,"count":101,"type":"VEC3","name":"accessorAnimationPositions"},{"bufferView":8,"byteOffset":3232,"componentType":5126,"count":101,"type":"VEC4","name":"accessorAnimationRotations"},{"bufferView":7,"byteOffset":6060,"componentType":5126,"count":101,"type":"VEC3","name":"accessorAnimationScales"}],"bufferViews":[{"buffer":0,"byteLength":116036,"name":"bufferViewScalar"},{"buffer":0,"byteOffset":116036,"byteLength":1392408,"byteStride":12,"name":"bufferViewFloatVec3"},{"buffer":0,"byteOffset":1508444,"byteLength":464136,"byteStride":8,"name":"bufferViewFloatVec2"},{"buffer":0,"byteOffset":1972580,"byteLength":111648,"byteStride":8,"name":"bufferViewUnsignedShortVec4"},{"buffer":0,"byteOffset":2084228,"byteLength":223296,"byteStride":16,"name":"bufferViewFloatVec4"},{"buffer":0,"byteOffset":2307524,"byteLength":320,"name":"bufferViewFloatMat4"},{"buffer":0,"byteOffset":2307844,"byteLength":1212,"name":"bufferViewAnimationFloatScalar"},{"buffer":0,"byteOffset":2309056,"byteLength":7272,"name":"bufferViewAnimationFloatVec3"},{"buffer":0,"byteOffset":2316328,"byteLength":4848,"name":"bufferViewAnimationFloatVec4"}],"buffers":[{"uri":"tree2018.bin","byteLength":2321176}],"materials":[{"pbrMetallicRoughness":{"baseColorFactor":[1.0,1.0,1.0,1.0],"baseColorTexture":{"index":0,"texCoord":0},"metallicFactor":0.0,"roughnessFactor":0.9},"emissiveFactor":[0.0,0.0,0.0],"alphaMode":"OPAQUE","name":"01 - Default"},{"pbrMetallicRoughness":{"baseColorFactor":[1.0,1.0,1.0,1.0],"baseColorTexture":{"index":1,"texCoord":0},"metallicFactor":0.0,"roughnessFactor":0.9},"emissiveFactor":[0.0,0.0,0.0],"alphaMode":"OPAQUE","name":"02 - Default"}],"textures":[{"sampler":0,"source":0,"name":"sg.jpg"},{"sampler":0,"source":1,"name":"sy.jpg"}],"images":[{"uri":"sg.jpg"},{"uri":"sy.jpg"}],"samplers":[{"magFilter":9729,"minFilter":9987,"wrapS":10497,"wrapT":10497}],"animations":[{"channels":[{"sampler":0,"target":{"node":2,"path":"translation"}},{"sampler":1,"target":{"node":2,"path":"rotation"}},{"sampler":2,"target":{"node":2,"path":"scale"}},{"sampler":3,"target":{"node":3,"path":"translation"}},{"sampler":4,"target":{"node":3,"path":"rotation"}},{"sampler":5,"target":{"node":3,"path":"scale"}},{"sampler":6,"target":{"node":5,"path":"translation"}},{"sampler":7,"target":{"node":5,"path":"rotation"}},{"sampler":8,"target":{"node":5,"path":"scale"}}],"samplers":[{"input":25,"interpolation":"LINEAR","output":26},{"input":25,"interpolation":"LINEAR","output":27},{"input":25,"interpolation":"LINEAR","output":28},{"input":29,"interpolation":"LINEAR","output":30},{"input":29,"interpolation":"LINEAR","output":31},{"input":29,"interpolation":"LINEAR","output":32},{"input":33,"interpolation":"LINEAR","output":34},{"input":33,"interpolation":"LINEAR","output":35},{"input":33,"interpolation":"LINEAR","output":36}],"name":"Animation"}],"skins":[{"inverseBindMatrices":22,"skeleton":2,"joints":[2,3],"name":"skeleton #0"},{"inverseBindMatrices":23,"skeleton":2,"joints":[2,5],"name":"skeleton #1"},{"inverseBindMatrices":24,"skeleton":2,"joints":[2],"name":"skeleton #2"}]}